<mxfile host="app.diagrams.net" modified="2022-03-08T21:50:50.208Z" agent="5.0 (Windows NT 10.0; Win64; x64) AppleWebKit/537.36 (KHTML, like Gecko) Chrome/101.0.4931.0 Safari/537.36" etag="QOW5f2c_i7DxjK9aguiQ" version="15.3.8" type="github">
  <diagram id="9IngYz7eWasDWDB4hYey" name="Page-1">
    <mxGraphModel dx="2574" dy="1345" grid="1" gridSize="10" guides="1" tooltips="1" connect="1" arrows="1" fold="1" page="1" pageScale="1" pageWidth="850" pageHeight="1100" math="0" shadow="0">
      <root>
        <mxCell id="0" />
        <mxCell id="1" parent="0" />
        <mxCell id="uwEyAnSzcpsdPbVKEwzS-2" value="" style="ellipse;whiteSpace=wrap;html=1;aspect=fixed;fillColor=none;" vertex="1" parent="1">
          <mxGeometry x="170" y="310" width="300" height="300" as="geometry" />
        </mxCell>
        <mxCell id="uwEyAnSzcpsdPbVKEwzS-3" value="" style="aspect=fixed;html=1;points=[];align=center;image;fontSize=12;image=img/lib/azure2/compute/Service_Fabric_Clusters.svg;fillColor=none;" vertex="1" parent="1">
          <mxGeometry x="190" y="454" width="67" height="64" as="geometry" />
        </mxCell>
        <mxCell id="uwEyAnSzcpsdPbVKEwzS-4" value="" style="aspect=fixed;html=1;points=[];align=center;image;fontSize=12;image=img/lib/azure2/compute/Service_Fabric_Clusters.svg;fillColor=none;" vertex="1" parent="1">
          <mxGeometry x="230" y="350" width="67" height="64" as="geometry" />
        </mxCell>
        <mxCell id="uwEyAnSzcpsdPbVKEwzS-6" value="" style="aspect=fixed;html=1;points=[];align=center;image;fontSize=12;image=img/lib/azure2/compute/Service_Fabric_Clusters.svg;fillColor=none;" vertex="1" parent="1">
          <mxGeometry x="380" y="454" width="67" height="64" as="geometry" />
        </mxCell>
        <mxCell id="uwEyAnSzcpsdPbVKEwzS-7" value="" style="aspect=fixed;html=1;points=[];align=center;image;fontSize=12;image=img/lib/azure2/compute/Service_Fabric_Clusters.svg;fillColor=none;" vertex="1" parent="1">
          <mxGeometry x="286.5" y="530" width="67" height="64" as="geometry" />
        </mxCell>
        <mxCell id="uwEyAnSzcpsdPbVKEwzS-8" value="" style="aspect=fixed;html=1;points=[];align=center;image;fontSize=12;image=img/lib/azure2/compute/Service_Fabric_Clusters.svg;fillColor=none;" vertex="1" parent="1">
          <mxGeometry x="350" y="350" width="67" height="64" as="geometry" />
        </mxCell>
        <mxCell id="uwEyAnSzcpsdPbVKEwzS-11" value="" style="endArrow=none;html=1;" edge="1" parent="1" source="uwEyAnSzcpsdPbVKEwzS-3" target="uwEyAnSzcpsdPbVKEwzS-8">
          <mxGeometry width="50" height="50" relative="1" as="geometry">
            <mxPoint x="400" y="710" as="sourcePoint" />
            <mxPoint x="450" y="660" as="targetPoint" />
          </mxGeometry>
        </mxCell>
        <mxCell id="uwEyAnSzcpsdPbVKEwzS-12" value="" style="endArrow=none;html=1;" edge="1" parent="1" source="uwEyAnSzcpsdPbVKEwzS-6" target="uwEyAnSzcpsdPbVKEwzS-3">
          <mxGeometry width="50" height="50" relative="1" as="geometry">
            <mxPoint x="400" y="710" as="sourcePoint" />
            <mxPoint x="450" y="660" as="targetPoint" />
          </mxGeometry>
        </mxCell>
        <mxCell id="uwEyAnSzcpsdPbVKEwzS-14" value="" style="endArrow=none;html=1;" edge="1" parent="1" source="uwEyAnSzcpsdPbVKEwzS-4" target="uwEyAnSzcpsdPbVKEwzS-7">
          <mxGeometry width="50" height="50" relative="1" as="geometry">
            <mxPoint x="400" y="710" as="sourcePoint" />
            <mxPoint x="450" y="660" as="targetPoint" />
          </mxGeometry>
        </mxCell>
        <mxCell id="uwEyAnSzcpsdPbVKEwzS-15" value="" style="endArrow=none;html=1;" edge="1" parent="1" source="uwEyAnSzcpsdPbVKEwzS-7" target="uwEyAnSzcpsdPbVKEwzS-8">
          <mxGeometry width="50" height="50" relative="1" as="geometry">
            <mxPoint x="400" y="710" as="sourcePoint" />
            <mxPoint x="450" y="660" as="targetPoint" />
          </mxGeometry>
        </mxCell>
        <mxCell id="uwEyAnSzcpsdPbVKEwzS-16" value="" style="endArrow=none;html=1;" edge="1" parent="1" source="uwEyAnSzcpsdPbVKEwzS-6" target="uwEyAnSzcpsdPbVKEwzS-8">
          <mxGeometry width="50" height="50" relative="1" as="geometry">
            <mxPoint x="400" y="710" as="sourcePoint" />
            <mxPoint x="450" y="660" as="targetPoint" />
          </mxGeometry>
        </mxCell>
        <mxCell id="uwEyAnSzcpsdPbVKEwzS-17" value="" style="endArrow=none;html=1;" edge="1" parent="1" source="uwEyAnSzcpsdPbVKEwzS-8" target="uwEyAnSzcpsdPbVKEwzS-4">
          <mxGeometry width="50" height="50" relative="1" as="geometry">
            <mxPoint x="400" y="710" as="sourcePoint" />
            <mxPoint x="450" y="660" as="targetPoint" />
          </mxGeometry>
        </mxCell>
        <mxCell id="uwEyAnSzcpsdPbVKEwzS-18" value="" style="endArrow=none;html=1;" edge="1" parent="1" source="uwEyAnSzcpsdPbVKEwzS-3" target="uwEyAnSzcpsdPbVKEwzS-4">
          <mxGeometry width="50" height="50" relative="1" as="geometry">
            <mxPoint x="400" y="710" as="sourcePoint" />
            <mxPoint x="450" y="660" as="targetPoint" />
          </mxGeometry>
        </mxCell>
        <mxCell id="uwEyAnSzcpsdPbVKEwzS-19" value="" style="endArrow=none;html=1;exitX=1.015;exitY=1.034;exitDx=0;exitDy=0;exitPerimeter=0;" edge="1" parent="1" source="uwEyAnSzcpsdPbVKEwzS-3" target="uwEyAnSzcpsdPbVKEwzS-7">
          <mxGeometry width="50" height="50" relative="1" as="geometry">
            <mxPoint x="400" y="710" as="sourcePoint" />
            <mxPoint x="450" y="660" as="targetPoint" />
          </mxGeometry>
        </mxCell>
        <mxCell id="uwEyAnSzcpsdPbVKEwzS-20" value="" style="endArrow=none;html=1;" edge="1" parent="1" source="uwEyAnSzcpsdPbVKEwzS-7" target="uwEyAnSzcpsdPbVKEwzS-6">
          <mxGeometry width="50" height="50" relative="1" as="geometry">
            <mxPoint x="400" y="710" as="sourcePoint" />
            <mxPoint x="450" y="660" as="targetPoint" />
          </mxGeometry>
        </mxCell>
        <mxCell id="uwEyAnSzcpsdPbVKEwzS-22" value="" style="endArrow=none;html=1;" edge="1" parent="1" source="uwEyAnSzcpsdPbVKEwzS-4" target="uwEyAnSzcpsdPbVKEwzS-6">
          <mxGeometry width="50" height="50" relative="1" as="geometry">
            <mxPoint x="400" y="710" as="sourcePoint" />
            <mxPoint x="450" y="660" as="targetPoint" />
          </mxGeometry>
        </mxCell>
        <mxCell id="uwEyAnSzcpsdPbVKEwzS-23" value="" style="aspect=fixed;perimeter=ellipsePerimeter;html=1;align=center;shadow=0;dashed=0;spacingTop=3;image;image=img/lib/active_directory/generic_node.svg;fillColor=none;" vertex="1" parent="1">
          <mxGeometry x="90" y="526" width="50" height="49" as="geometry" />
        </mxCell>
        <mxCell id="uwEyAnSzcpsdPbVKEwzS-24" value="" style="aspect=fixed;perimeter=ellipsePerimeter;html=1;align=center;shadow=0;dashed=0;spacingTop=3;image;image=img/lib/active_directory/generic_node.svg;fillColor=none;" vertex="1" parent="1">
          <mxGeometry x="295" y="660" width="50" height="49" as="geometry" />
        </mxCell>
        <mxCell id="uwEyAnSzcpsdPbVKEwzS-25" value="" style="aspect=fixed;perimeter=ellipsePerimeter;html=1;align=center;shadow=0;dashed=0;spacingTop=3;image;image=img/lib/active_directory/generic_node.svg;fillColor=none;" vertex="1" parent="1">
          <mxGeometry x="500" y="526" width="50" height="49" as="geometry" />
        </mxCell>
        <mxCell id="uwEyAnSzcpsdPbVKEwzS-26" value="" style="aspect=fixed;perimeter=ellipsePerimeter;html=1;align=center;shadow=0;dashed=0;spacingTop=3;image;image=img/lib/active_directory/generic_node.svg;fillColor=none;" vertex="1" parent="1">
          <mxGeometry x="447" y="270" width="50" height="49" as="geometry" />
        </mxCell>
        <mxCell id="uwEyAnSzcpsdPbVKEwzS-27" value="" style="aspect=fixed;perimeter=ellipsePerimeter;html=1;align=center;shadow=0;dashed=0;spacingTop=3;image;image=img/lib/active_directory/generic_node.svg;fillColor=none;" vertex="1" parent="1">
          <mxGeometry x="150" y="270" width="50" height="49" as="geometry" />
        </mxCell>
        <mxCell id="uwEyAnSzcpsdPbVKEwzS-29" value="" style="endArrow=none;html=1;" edge="1" parent="1" source="uwEyAnSzcpsdPbVKEwzS-3" target="uwEyAnSzcpsdPbVKEwzS-23">
          <mxGeometry width="50" height="50" relative="1" as="geometry">
            <mxPoint x="400" y="710" as="sourcePoint" />
            <mxPoint x="450" y="660" as="targetPoint" />
          </mxGeometry>
        </mxCell>
        <mxCell id="uwEyAnSzcpsdPbVKEwzS-30" value="" style="endArrow=none;html=1;entryX=1;entryY=0.75;entryDx=0;entryDy=0;" edge="1" parent="1" source="uwEyAnSzcpsdPbVKEwzS-4" target="uwEyAnSzcpsdPbVKEwzS-27">
          <mxGeometry width="50" height="50" relative="1" as="geometry">
            <mxPoint x="400" y="710" as="sourcePoint" />
            <mxPoint x="450" y="660" as="targetPoint" />
          </mxGeometry>
        </mxCell>
        <mxCell id="uwEyAnSzcpsdPbVKEwzS-31" value="" style="endArrow=none;html=1;" edge="1" parent="1" source="uwEyAnSzcpsdPbVKEwzS-8" target="uwEyAnSzcpsdPbVKEwzS-26">
          <mxGeometry width="50" height="50" relative="1" as="geometry">
            <mxPoint x="400" y="710" as="sourcePoint" />
            <mxPoint x="450" y="660" as="targetPoint" />
          </mxGeometry>
        </mxCell>
        <mxCell id="uwEyAnSzcpsdPbVKEwzS-32" value="" style="endArrow=none;html=1;" edge="1" parent="1" source="uwEyAnSzcpsdPbVKEwzS-6" target="uwEyAnSzcpsdPbVKEwzS-25">
          <mxGeometry width="50" height="50" relative="1" as="geometry">
            <mxPoint x="400" y="710" as="sourcePoint" />
            <mxPoint x="450" y="660" as="targetPoint" />
          </mxGeometry>
        </mxCell>
        <mxCell id="uwEyAnSzcpsdPbVKEwzS-33" value="" style="endArrow=none;html=1;" edge="1" parent="1" source="uwEyAnSzcpsdPbVKEwzS-24" target="uwEyAnSzcpsdPbVKEwzS-7">
          <mxGeometry width="50" height="50" relative="1" as="geometry">
            <mxPoint x="400" y="710" as="sourcePoint" />
            <mxPoint x="450" y="660" as="targetPoint" />
          </mxGeometry>
        </mxCell>
      </root>
    </mxGraphModel>
  </diagram>
</mxfile>
